<svg width="175.20001220703125px" height="131.63999023437498px" xmlns="http://www.w3.org/2000/svg" viewBox="162.39999389648438 9.180004882812511 175.20001220703125 131.63999023437498" style="background:#596886" preserveAspectRatio="xMidYMid"><defs><filter id="editing-hover" x="-100%" y="-100%" width="300%" height="300%"><feFlood flood-color="#052b4a" result="flood"></feFlood><feComposite operator="in" in2="SourceAlpha" in="flood" result="shadow"></feComposite><feOffset dx="-4" dy="-4" in="SourceGraphic" result="offset-1"></feOffset><feOffset dx="4" dy="4" in="shadow" result="offset-2"></feOffset><feMerge><feMergeNode in="offset-2"></feMergeNode><feMergeNode in="offset-1"></feMergeNode></feMerge></filter></defs><g filter="url(#editing-hover)"><g transform="translate(194.96300506591797, 106.134765625)"><path d="M45.89-21.57L45.89-21.57L45.89-21.57Q45.89-12.03 39.30-4.51L39.30-4.51L39.30-4.51Q32.70 3.01 24.64 4.86L24.64 4.86L24.64 4.86Q22.27 5.44 20.10 5.44L20.10 5.44L20.10 5.44Q14.14 5.44 10.24 1.02L10.24 1.02L10.24 1.02Q6.34-3.39 6.34-10.11L6.34-10.11L6.34-10.11Q6.34-19.01 12.42-24.83L12.42-24.83L12.42-24.83Q16.26-28.54 21.82-29.89L21.82-29.89L21.82-29.89Q23.49-30.21 24.90-30.21L24.90-30.21L24.90-30.21Q28.10-30.21 29.57-28.70L29.57-28.70L29.57-28.70Q31.04-27.20 30.40-27.20L30.40-27.20L29.38-27.71L29.38-27.71Q28.03-28.22 27.04-28.22L27.04-28.22L27.04-28.22Q26.05-28.22 25.34-28.03L25.34-28.03L25.34-28.03Q17.66-26.24 12.93-18.82L12.93-18.82L12.93-18.82Q9.28-13.06 9.28-7.23L9.28-7.23L9.28-7.23Q9.28 0.77 15.10 3.14L15.10 3.14L15.10 3.14Q17.02 3.97 19.30 3.97L19.30 3.97L19.30 3.97Q21.57 3.97 23.94 3.39L23.94 3.39L23.94 3.39Q28.22 2.43 32.64-1.95L32.64-1.95L32.64-1.95Q37.06-6.34 39.87-12.29L39.87-12.29L39.87-12.29Q42.69-18.24 42.69-23.42L42.69-23.42L42.69-23.42Q42.69-30.21 38.66-33.54L38.66-33.54L38.66-33.54Q35.26-36.22 29.76-36.22L29.76-36.22L29.76-36.22Q28.93-36.22 27.97-36.16L27.97-36.16L27.97-36.16Q20.86-35.71 14.85-31.36L14.85-31.36L14.85-31.36Q10.43-28.29 7.42-23.74L7.42-23.74L7.42-23.74Q4.42-19.20 4.10-14.72L4.10-14.72L4.10-14.72Q4.03-13.70 3.49-14.24L3.49-14.24L3.49-14.24Q2.94-14.78 2.94-15.87L2.94-15.87L2.94-15.87Q2.94-20.48 5.66-24.93L5.66-24.93L5.66-24.93Q8.38-29.38 12.93-32.64L12.93-32.64L12.93-32.64Q16.13-34.94 20.26-36.32L20.26-36.32L20.26-36.32Q24.38-37.70 28.16-37.76L28.16-37.76L28.16-37.76Q36.03-37.76 40.96-33.47L40.96-33.47L40.96-33.47Q45.89-29.18 45.89-21.57ZM69.95-32.64L69.95-32.64L69.95-32.64Q70.72-34.05 70.72-34.82L70.72-34.82L70.72-34.82Q70.72-36.16 69.63-36.16L69.63-36.16L69.63-36.16Q68.74-36.16 67.39-35.14L67.39-35.14L67.39-35.14Q62.27-31.17 57.47-22.59L57.47-22.59L57.47-22.59Q53.63-15.68 51.84-10.75L51.84-10.75L51.84-10.75Q56.26-13.76 61.73-20.54L61.73-20.54L61.73-20.54Q67.20-27.33 69.95-32.64ZM50.88-8.19L50.88-8.19L50.88-8.19Q50.11-6.02 50.05-5.28L50.05-5.28L50.05-5.28Q49.98-4.54 49.98-3.30L49.98-3.30L49.98-3.30Q49.98-2.05 50.62-1.02L50.62-1.02L50.62-1.02Q51.71 0.70 54.27-0.77L54.27-0.77L54.27-0.77Q56.19-1.79 59.14-4.51L59.14-4.51L59.14-4.51Q62.08-7.23 63.68-9.47L63.68-9.47L63.68-9.47Q63.81-9.66 64.06-9.66L64.06-9.66L64.06-9.66Q64.64-9.66 64.38-8.83L64.38-8.83L64.38-8.83Q63.42-7.10 60.83-4.42L60.83-4.42L60.83-4.42Q58.24-1.73 56.13-0.16L56.13-0.16L56.13-0.16Q54.02 1.41 51.90 1.41L51.90 1.41L51.90 1.41Q47.04 1.41 47.04-3.33L47.04-3.33L47.04-3.33Q47.04-3.52 47.04-3.71L47.04-3.71L47.04-3.71Q47.30-8.19 51.58-17.25L51.58-17.25L51.58-17.25Q55.87-26.30 59.33-30.91L59.33-30.91L61.31-33.41L61.31-33.41Q62.02-34.24 63.36-35.46L63.36-35.46L63.36-35.46Q65.92-37.89 68.64-37.89L68.64-37.89L68.64-37.89Q71.36-37.89 72.32-36.22L72.32-36.22L72.32-36.22Q72.64-35.65 72.64-34.56L72.64-34.56L72.64-34.56Q72.64-33.47 71.68-31.49L71.68-31.49L71.68-31.49Q65.09-20.03 50.88-8.19ZM77.57-18.62L77.57-18.62L77.57-18.62Q81.02-18.62 81.02-15.30L81.02-15.30L81.02-15.30Q81.02-13.57 80.06-12.48L80.06-12.48L80.06-12.48Q78.46-10.11 74.88-8.35L74.88-8.35L74.88-8.35Q71.30-6.59 68.80-6.40L68.80-6.40L68.80-6.40Q67.90-6.34 67.84-6.91L67.84-6.91L67.84-6.91Q67.78-7.17 68-7.23L68-7.23L68-7.23Q68.22-7.30 68.35-7.30L68.35-7.30L68.35-7.30Q69.82-7.42 72.13-8.70L72.13-8.70L72.13-8.70Q76.42-11.01 78.40-13.44L78.40-13.44L78.40-13.44Q79.23-14.59 79.23-15.65L79.23-15.65L79.23-15.65Q79.23-16.70 78.21-16.70L78.21-16.70L78.21-16.70Q77.38-16.70 75.97-16L75.97-16L75.97-16Q72.96-14.59 69.63-11.10L69.63-11.10L69.63-11.10Q66.30-7.62 65.28-4.29L65.28-4.29L65.28-4.29Q64.96-3.26 64.96-2.27L64.96-2.27L64.96-2.27Q64.96-1.28 65.79-0.38L65.79-0.38L65.79-0.38Q66.62 0.51 68.35 0.51L68.35 0.51L68.35 0.51Q70.27 0.51 72.77-0.51L72.77-0.51L72.77-0.51Q80-3.46 83.90-9.41L83.90-9.41L83.90-9.41Q84.29-9.92 84.61-9.60L84.61-9.60L84.61-9.60Q84.86-9.47 84.86-9.28L84.86-9.28L84.86-9.28Q84.86-9.09 84.67-8.83L84.67-8.83L84.67-8.83Q82.75-5.63 79.81-3.14L79.81-3.14L79.81-3.14Q74.11 1.73 68.74 1.73L68.74 1.73L68.74 1.73Q64.13 1.73 62.27-1.02L62.27-1.02L62.27-1.02Q61.57-2.11 61.57-3.65L61.57-3.65L61.57-3.65Q61.57-5.18 62.40-7.30L62.40-7.30L62.40-7.30Q64-10.94 69.25-14.78L69.25-14.78L69.25-14.78Q74.50-18.62 77.57-18.62ZM81.47 24.38L81.47 24.38L81.47 24.38Q80.96 24.38 80.19 24.19L80.19 24.19L80.19 24.19Q76.93 23.36 76.93 20.77L76.93 20.77L76.93 20.77Q76.93 18.18 80.29 14.27L80.29 14.27L80.29 14.27Q83.65 10.37 94.46 3.20L94.46 3.20L94.46 3.20Q99.07-6.21 100.86-11.71L100.86-11.71L100.86-11.71Q97.28-7.36 95.74-5.70L95.74-5.70L95.74-5.70Q89.98 0.70 86.46 0.70L86.46 0.70L86.46 0.70Q85.44 0.70 84.26 0.10L84.26 0.10L84.26 0.10Q83.07-0.51 82.24-1.63L82.24-1.63L82.24-1.63Q81.41-2.75 81.41-4.03L81.41-4.03L81.41-4.03Q81.41-7.42 86.14-11.65L86.14-11.65L86.14-11.65Q88.96-14.21 92.03-16L92.03-16L92.03-16Q95.10-17.79 96.90-18.24L96.90-18.24L96.90-18.24Q98.69-18.69 100.35-18.69L100.35-18.69L100.35-18.69Q102.02-18.69 103.30-17.79L103.30-17.79L103.30-17.79Q104.58-16.90 104.58-16L104.58-16L104.58-16Q104.58-15.49 104.06-15.68L104.06-15.68L104.06-15.68Q103.36-16.90 100.96-16.90L100.96-16.90L100.96-16.90Q98.56-16.90 95.52-15.33L95.52-15.33L95.52-15.33Q92.48-13.76 90.05-11.62L90.05-11.62L90.05-11.62Q87.62-9.47 85.92-6.75L85.92-6.75L85.92-6.75Q84.22-4.03 84.22-2.75L84.22-2.75L84.22-2.75Q84.22-0.51 85.50-0.51L85.50-0.51L85.50-0.51Q87.30-0.51 91.01-3.46L91.01-3.46L91.01-3.46Q96.51-7.74 101.57-13.89L101.57-13.89L101.57-13.89Q102.40-15.10 105.02-13.82L105.02-13.82L105.02-13.82Q106.05-13.31 105.86-12.93L105.86-12.93L105.86-12.93Q105.02-11.07 102.82-6.50L102.82-6.50L102.82-6.50Q100.61-1.92 99.52 0.38L99.52 0.38L99.52 0.38Q100.99-0.38 104.54-3.49L104.54-3.49L104.54-3.49Q108.10-6.59 110.78-9.73L110.78-9.73L110.78-9.73Q112.19-11.39 112.19-10.24L112.19-10.24L112.19-10.24Q112.19-8.64 104.51-1.79L104.51-1.79L104.51-1.79Q100.10 2.18 98.24 3.20L98.24 3.20L98.24 3.20Q92.80 14.40 90.94 17.28L90.94 17.28L90.94 17.28Q86.14 24.38 81.47 24.38ZM93.25 5.63L93.25 5.63L93.25 5.63Q85.57 11.39 82.24 14.75L82.24 14.75L82.24 14.75Q78.91 18.11 78.91 21.06L78.91 21.06L78.91 21.06Q78.91 21.95 79.49 22.34L79.49 22.34L79.49 22.34Q80.06 22.72 80.70 22.72L80.70 22.72L80.70 22.72Q81.34 22.72 82.56 21.76L82.56 21.76L82.56 21.76Q83.78 20.80 84.64 19.87L84.64 19.87L84.64 19.87Q85.50 18.94 86.14 18.14L86.14 18.14L86.14 18.14Q86.78 17.34 87.58 16.10L87.58 16.10L87.58 16.10Q88.38 14.85 88.83 14.14L88.83 14.14L88.83 14.14Q89.28 13.44 90.08 11.94L90.08 11.94L90.08 11.94Q90.88 10.43 91.17 9.89L91.17 9.89L91.17 9.89Q91.46 9.34 92.26 7.68L92.26 7.68L92.26 7.68Q93.06 6.02 93.25 5.63Z" fill="#ffd5af"></path></g></g><style>text {
  font-size: 64px;
  font-family: Arial Black;
  dominant-baseline: central;
  text-anchor: middle;
}</style></svg>